HIERARCHY
ROOT pelvis
{
  OFFSET 0 100 0
  CHANNELS 6 Xposition Yposition Zposition Zrotation Xrotation Yrotation
  JOINT pelvis_right_femur
  {
    OFFSET -10.78128 -3.44521 -0.5502486
    CHANNELS 3 Zrotation Xrotation Yrotation
    JOINT right_femur_tibia
    {
      OFFSET -0.8047443 -44.0398 -0.1307829
      CHANNELS 3 Zrotation Xrotation Yrotation
      JOINT right_tibia_foot
      {
        OFFSET 3.006224 -47.83518 -5
        CHANNELS 3 Zrotation Xrotation Yrotation
        End Site
        {
          OFFSET 0 -5 15
        }
      }
    }
  }
  JOINT pelvis_left_femur
  {
    OFFSET 10.78128 -3.44521 -0.5502486
    CHANNELS 3 Zrotation Xrotation Yrotation
    JOINT left_femur_tibia
    {
      OFFSET 0.8047443 -44.0398 -0.1307829
      CHANNELS 3 Zrotation Xrotation Yrotation
      JOINT left_tibia_foot
      {
        OFFSET -4.370144 -48.10324 -4.275266
        CHANNELS 3 Zrotation Xrotation Yrotation
        End Site
        {
          OFFSET 0 -5 15
        }
      }
    }
  }
  JOINT pelvis_spine1
  {
    OFFSET 0 6.468898 -3.129235
    CHANNELS 3 Zrotation Xrotation Yrotation
    JOINT spine1
    {
      OFFSET 0 23.15396 4.99043
      CHANNELS 3 Zrotation Xrotation Yrotation
      JOINT spine2
      {
        OFFSET 0 20.79997 -5.064912
        CHANNELS 3 Zrotation Xrotation Yrotation
        JOINT neck
        {
          OFFSET 0 14.38658 9.616178
          CHANNELS 3 Zrotation Xrotation Yrotation
          End Site
          {
            OFFSET 0 20 0
          }
        }
      }
      JOINT right_manubrium
      {
        OFFSET -5.722621 16.35077 3.967754
        CHANNELS 3 Zrotation Xrotation Yrotation
        JOINT right_clavicle
        {
          OFFSET -13.16364 1.694482 -4.693211
          CHANNELS 3 Zrotation Xrotation Yrotation
          JOINT right_humerus
          {
            OFFSET -28.5034 -0.3100689 -2.792744
            CHANNELS 3 Zrotation Xrotation Yrotation
            JOINT right_radius
            {
              OFFSET -25.15693 0.02248979 -1.271978
              CHANNELS 3 Zrotation Xrotation Yrotation
              End Site
              {
                OFFSET -15 0 0
              }
            }
          }
        }
      }
      JOINT left_manubrium
      {
        OFFSET 5.722621 16.35077 3.967754
        CHANNELS 3 Zrotation Xrotation Yrotation
        JOINT left_clavicle
        {
          OFFSET 13.16364 1.694482 -4.693211
          CHANNELS 3 Zrotation Xrotation Yrotation
          JOINT left_humerus
          {
            OFFSET 29.39168 -1.063119 -2.237045
            CHANNELS 3 Zrotation Xrotation Yrotation
            JOINT left_radius
            {
              OFFSET 24.59957 -0.9528479 0.9047498
              CHANNELS 3 Zrotation Xrotation Yrotation
              End Site
              {
                OFFSET 15 -0 -0
              }
            }
          }
        }
      }
    }
  }
}
MOTION
Frames: 17
Frame Time: 0.0416666666667
0 103.5113 0 2.416351 0.4715865 0.1372113 3.327791 -15.67158 10.12325 -0 37.66288 -0 -4.53622 -18.69068 -3.084844 -8.876241 9.184603 -22.44926 -0 5.345993 -0 18.91293 -11.36834 28.92064 -1.52224 -2.066172 5.445975 2.582063 10.11045 -7.641392 1.473281 20.9356 6.282973 2.989066 -26.15209 9.145148 4.384514 -19.98711 11.29427 87.04724 34.06458 -19.08224 -0 0 14.94638 -8.943334 8.883239 4.748991 6.049464 -21.00621 -1.071282 -93.27439 22.83916 22.7632 0 0 -15.19185 11.56635 15.04293 0.848482
0.2726141 103.7678 1.517686 1.86039 1.436082 0.2388715 4.378887 -18.03462 10.80439 -0 37.76905 -0 -4.727945 -17.95923 -3.005681 -8.72815 9.095477 -22.60967 -0 5.777427 -0 18.75608 -12.39162 29.49892 -1.546726 -2.008513 5.279071 2.704994 10.11622 -7.765724 1.465028 20.82164 6.328356 3.048134 -26.27683 9.111744 4.448622 -19.76413 11.37079 87.10021 33.95676 -19.27552 -0 0 14.66707 -9.003919 8.953043 4.819869 6.081966 -21.02859 -1.046032 -93.00814 22.60988 22.21825 0 0 -15.30816 11.56063 14.84276 0.6602219
0.5152748 103.1667 4.236825 0.9812334 -0.7171319 0.4190685 3.480485 -23.01228 1.973884 -0 25.19223 -0 -8.315518 -8.567485 -0.4281597 -7.064 12.4678 -18.7622 -0 6.930476 -0 10.58801 -18.34316 23.30677 -1.691761 -2.361097 4.978597 2.9381 9.691591 -7.922114 1.544261 20.57835 6.594957 3.242494 -26.6303 9.469742 5.301091 -19.14273 11.27507 86.52913 34.31792 -19.83681 -0 0 14.70784 -7.834947 9.071378 4.340219 6.577928 -20.99516 -0.6683054 -93.57617 23.46664 22.06685 0 0 -15.43614 11.40847 15.3923 1.252985
0.7296767 102.5878 7.348138 0.641449 -0.2881718 0.5499481 3.819565 -25.65161 1.005808 -0 22.2734 -0 -8.822251 -6.278426 0.01567945 -6.856335 12.87855 -17.63992 -0 7.835732 -0 10.06147 -19.41253 22.38709 -1.79211 -2.520782 4.827589 3.032561 9.511584 -7.992342 1.563868 20.46227 6.769478 3.352228 -26.83131 9.67437 5.595184 -18.9509 11.23591 86.31758 34.40237 -20.01059 -0 0 14.8377 -7.44033 9.120473 4.139054 6.820138 -20.98689 -0.461853 -93.81138 23.65327 21.99797 0 0 -15.30745 11.51663 15.61506 1.213387
0.9286132 102.0629 10.68804 0.1157181 1.041318 0.7291939 4.825614 -29.07823 1.709965 -0 20.52917 -0 -8.836252 -4.903947 0.06573367 -6.69386 12.96988 -17.20236 -0 8.705072 -0 9.8605 -20.63163 22.09032 -1.822602 -2.483568 4.691569 3.124923 9.49827 -8.088689 1.547599 20.35583 6.839087 3.417456 -26.94141 9.668567 5.650366 -18.80549 11.29642 86.32203 34.35511 -20.10729 -0 0 14.68098 -7.531825 9.219751 4.210335 6.87902 -21.01513 -0.3977493 -93.60487 23.41424 21.57748 0 0 -15.35517 11.5786 15.47548 0.9688192
1.121434 101.5197 14.28585 -0.2936248 1.965944 0.9971965 5.590786 -31.62277 1.987682 -0 18.66754 -0 -9.05388 -3.437364 0.2692468 -6.525156 13.13475 -16.68451 -0 9.791778 -0 9.481254 -21.5184 21.5196 -1.825794 -2.405083 4.553384 3.225039 9.510682 -8.1994 1.527216 20.24194 6.878997 3.471378 -27.02407 9.607717 5.683316 -18.63513 11.37671 86.36243 34.29286 -20.22728 -0 0 14.4185 -7.694967 9.348096 4.340293 6.906033 -21.05679 -0.3674704 -93.29939 23.14124 21.05331 0 0 -15.53336 11.56479 15.26086 0.7810561
1.31602 100.9831 18.21193 -0.7023082 2.659348 1.374423 6.22853 -33.64785 2.058674 -0 16.68664 -0 -9.336824 -1.864244 0.4722164 -6.257821 13.46458 -16.10091 -0 11.21236 -0 8.321335 -22.31533 20.42553 -1.796068 -2.275751 4.400188 3.344683 9.551393 -8.339419 1.500209 20.10722 6.888993 3.51581 -27.07792 9.478271 5.696742 -18.41562 11.4838 86.45133 34.20131 -20.4015 -0 0 14.00129 -7.948371 9.52434 4.547343 6.901369 -21.12078 -0.3764197 -92.85588 22.81764 20.36364 0 0 -15.90014 11.44612 14.9389 0.6718615
1.51272 100.4735 22.5393 -1.068443 2.953272 1.85472 6.624423 -34.72455 1.793379 -0 14.83423 -0 -9.642635 -0.3130049 0.6187752 -5.891735 14.00948 -15.3712 -0 13.17211 -0 6.34775 -22.683 18.73765 -1.743097 -2.120985 4.251017 3.4652 9.609743 -8.490583 1.467808 19.96775 6.880138 3.550017 -27.09241 9.307079 5.688207 -18.17968 11.59712 86.57879 34.08515 -20.61345 -0 0 13.49661 -8.262775 9.726729 4.79879 6.877365 -21.20373 -0.4194535 -92.34184 22.48379 19.60656 0 0 -16.40507 11.24603 14.55458 0.6541169
1.705232 100.057 27.35572 -1.431872 2.913017 2.410423 6.890465 -34.7672 1.431287 -0 13.35047 -0 -9.795779 1.037027 0.524711 -5.388871 14.7423 -14.46285 -0 16.01423 -0 3.420885 -22.35395 16.39704 -1.675523 -1.964754 4.110107 3.585712 9.668483 -8.646093 1.434163 19.826 6.857587 3.574562 -27.06559 9.111671 5.690344 -17.92369 11.70487 86.7086 33.95845 -20.86332 -0 0 12.94531 -8.57977 9.947714 5.068207 6.847005 -21.29675 -0.4869298 -91.81629 22.19922 18.84224 0 0 -17.0163 10.95343 14.146 0.7828631
1.882272 99.83932 32.7313 -1.819438 2.605529 2.968124 7.188612 -33.60364 1.283696 -0 12.62246 -0 -9.653854 1.914798 0.04067115 -4.747666 15.4419 -13.37373 -0 20.23148 -0 -0.1781762 -20.88528 13.6318 -1.60483 -1.833017 3.995187 3.696247 9.715868 -8.785201 1.405426 19.69937 6.818899 3.58441 -26.99744 8.914067 5.726332 -17.66989 11.79447 86.79808 33.84585 -21.11555 -0 0 12.42834 -8.832599 10.15935 5.318459 6.810787 -21.37979 -0.5707935 -91.36622 22.02338 18.18747 0 0 -17.63276 10.58765 13.77233 1.078685
2.036264 99.97127 38.66672 -2.269791 2.182312 3.409737 7.697437 -31.15524 1.732531 -0 12.98717 -0 -9.158945 1.938412 -0.8925711 -3.981592 15.5782 -12.22102 -0 26.38272 -0 -3.925252 -17.95465 10.88774 -1.537656 -1.744379 3.92731 3.789602 9.746849 -8.884458 1.390137 19.6104 6.746234 3.568007 -26.88854 8.724225 5.822577 -17.4382 11.86018 86.79779 33.77743 -21.32345 -0 0 12.02113 -8.94458 10.32567 5.51615 6.752359 -21.42397 -0.6715658 -91.07966 22.023 17.76737 0 0 -18.13885 10.1553 13.49228 1.572963
2.17746 100.6012 45.01701 -2.730352 1.764729 3.590557 8.356739 -27.45649 2.820748 -0 14.35577 -0 -8.521809 0.8039995 -2.024711 -3.199617 14.27452 -11.1997 -0 34.79206 -0 -6.98031 -13.69159 8.758079 -1.477209 -1.703828 3.936844 3.846051 9.77075 -8.911351 1.39583 19.59673 6.613523 3.509771 -26.73153 8.543567 5.970937 -17.26846 11.89695 86.68535 33.76931 -21.42185 -0 0 11.79543 -8.872967 10.38912 5.635083 6.639574 -21.3997 -0.8053366 -91.02579 22.24391 17.70687 0 0 -18.41806 9.67374 13.35354 2.265026
2.338977 101.7787 51.47317 -2.943698 1.308499 3.409256 8.725883 -22.72459 3.986763 -0 15.7883 -0 -8.156238 -1.3179 -2.806915 -2.664203 10.69221 -10.43959 -0 44.93889 -0 -8.601273 -9.077532 7.6576 -1.421678 -1.68962 4.061095 3.822975 9.81719 -8.828452 1.422663 19.70657 6.398463 3.397905 -26.49099 8.357737 6.100766 -17.22009 11.89707 86.49889 33.80633 -21.34006 -0 0 11.78445 -8.679187 10.28583 5.682483 6.434473 -21.29549 -1.009079 -91.19667 22.67415 18.06373 0 0 -18.43425 9.164232 13.35201 3.114081
2.543015 103.3583 57.70594 -2.531669 0.4836593 2.892252 8.285141 -17.23956 4.436637 -0 15.90995 -0 -8.160531 -3.553677 -2.89012 -2.628268 4.916419 -9.803539 -0 54.92221 -0 -8.713964 -5.665953 7.727509 -1.366605 -1.641725 4.342391 3.648066 9.941195 -8.599578 1.454053 19.97932 6.106013 3.238951 -26.09534 8.136383 6.065808 -17.38169 11.85527 86.34159 33.85255 -20.98445 -0 0 11.98008 -8.617608 9.994724 5.738151 6.112667 -21.13681 -1.319049 -91.45401 23.16915 18.77203 0 0 -18.2619 8.681567 13.3896 3.983201
2.753237 105.0299 63.56931 -1.483092 -1.001882 2.211674 7.118863 -11.20646 4.140243 -0 14.37011 -0 -8.004938 -5.144833 -2.606051 -2.870193 -1.80752 -9.003653 -0 61.88819 -0 -8.101055 -4.294938 8.967306 -1.308032 -1.487217 4.813864 3.255311 10.19444 -8.205372 1.459623 20.40333 5.776568 3.059437 -25.47549 7.846928 5.727058 -17.85135 11.78488 86.27279 33.88905 -20.20918 -0 0 12.3935 -9.067658 9.607489 5.959733 5.6846 -20.97035 -1.713261 -91.59353 23.47109 19.68708 0 0 -18.00143 8.30542 13.30593 4.67542
2.914499 106.4677 69.10029 -0.3365423 -2.86436 1.555213 5.908367 -5.041843 3.700831 -0 12.11218 -0 -7.381823 -6.337325 -2.401918 -2.756955 -8.282554 -7.926985 -0 63.65845 -0 -7.49346 -4.397473 11.03738 -1.241153 -1.215669 5.472271 2.648173 10.55332 -7.658643 1.420597 20.89661 5.461992 2.877279 -24.64169 7.496483 5.068197 -18.69392 11.71062 86.18475 33.90254 -18.85259 -0 0 13.14213 -10.24076 9.309184 6.488374 5.209655 -20.81506 -2.074471 -91.55098 23.41722 20.7498 0 0 -17.66553 8.059292 13.02993 5.108161
3.029728 107.4431 74.39443 0.3884704 -4.43754 0.9725475 5.167625 0.5852749 3.3611 -0 10.06582 -0 -6.72289 -7.80645 -2.238245 -1.920084 -14.0905 -6.659387 -0 59.99162 -0 -6.920023 -4.948471 13.23087 -1.146212 -0.9051691 6.2647 1.916018 10.8969 -7.009154 1.344352 21.34287 5.191131 2.676739 -23.69146 7.136917 4.194466 -19.90928 11.64344 85.86169 33.85055 -16.84482 -0 0 14.39429 -12.02298 9.279157 7.370179 4.777103 -20.65282 -2.24967 -91.46957 23.08638 22.03371 0 0 -17.23573 7.84297 12.66023 5.425352
